<mxfile host="app.diagrams.net" modified="2024-02-28T15:10:11.158Z" agent="Mozilla/5.0 (Windows NT 10.0; Win64; x64) AppleWebKit/537.36 (KHTML, like Gecko) Chrome/122.0.0.0 Safari/537.36 Edg/122.0.0.0" etag="O0rg2huzuX90BBgpI5bg" version="23.1.7" type="github">
  <diagram id="R2lEEEUBdFMjLlhIrx00" name="Page-1">
    <mxGraphModel dx="1592" dy="1521" grid="1" gridSize="10" guides="1" tooltips="1" connect="1" arrows="1" fold="1" page="1" pageScale="1" pageWidth="850" pageHeight="1100" math="0" shadow="0" extFonts="Permanent Marker^https://fonts.googleapis.com/css?family=Permanent+Marker">
      <root>
        <mxCell id="0" />
        <mxCell id="1" parent="0" />
        <mxCell id="n2hWyiWzyWa_PL9sFiAs-1" value="realiza" style="rhombus;whiteSpace=wrap;html=1;" vertex="1" parent="1">
          <mxGeometry x="188" y="640" width="90" height="60" as="geometry" />
        </mxCell>
        <mxCell id="n2hWyiWzyWa_PL9sFiAs-2" value="tiene" style="rhombus;whiteSpace=wrap;html=1;" vertex="1" parent="1">
          <mxGeometry x="703" y="640" width="90" height="60" as="geometry" />
        </mxCell>
        <mxCell id="n2hWyiWzyWa_PL9sFiAs-3" value="tiene" style="rhombus;whiteSpace=wrap;html=1;" vertex="1" parent="1">
          <mxGeometry x="472.5" y="880.5" width="90" height="60" as="geometry" />
        </mxCell>
        <mxCell id="n2hWyiWzyWa_PL9sFiAs-5" style="edgeStyle=orthogonalEdgeStyle;rounded=0;orthogonalLoop=1;jettySize=auto;html=1;entryX=0.542;entryY=0.5;entryDx=0;entryDy=0;entryPerimeter=0;exitX=1;exitY=0.5;exitDx=0;exitDy=0;" edge="1" parent="1" source="n2hWyiWzyWa_PL9sFiAs-1" target="n2hWyiWzyWa_PL9sFiAs-21">
          <mxGeometry relative="1" as="geometry">
            <mxPoint x="266.75" y="670" as="sourcePoint" />
          </mxGeometry>
        </mxCell>
        <mxCell id="n2hWyiWzyWa_PL9sFiAs-6" style="edgeStyle=orthogonalEdgeStyle;rounded=0;orthogonalLoop=1;jettySize=auto;html=1;entryX=0.5;entryY=0.5;entryDx=0;entryDy=0;entryPerimeter=0;" edge="1" parent="1" source="n2hWyiWzyWa_PL9sFiAs-1" target="n2hWyiWzyWa_PL9sFiAs-22">
          <mxGeometry relative="1" as="geometry" />
        </mxCell>
        <mxCell id="n2hWyiWzyWa_PL9sFiAs-7" style="edgeStyle=orthogonalEdgeStyle;rounded=0;orthogonalLoop=1;jettySize=auto;html=1;entryX=0.625;entryY=0.5;entryDx=0;entryDy=0;entryPerimeter=0;" edge="1" parent="1" source="n2hWyiWzyWa_PL9sFiAs-2" target="n2hWyiWzyWa_PL9sFiAs-21">
          <mxGeometry relative="1" as="geometry" />
        </mxCell>
        <mxCell id="n2hWyiWzyWa_PL9sFiAs-9" style="edgeStyle=orthogonalEdgeStyle;rounded=0;orthogonalLoop=1;jettySize=auto;html=1;entryX=0.5;entryY=0.667;entryDx=0;entryDy=0;entryPerimeter=0;" edge="1" parent="1" source="n2hWyiWzyWa_PL9sFiAs-2" target="n2hWyiWzyWa_PL9sFiAs-20">
          <mxGeometry relative="1" as="geometry" />
        </mxCell>
        <mxCell id="n2hWyiWzyWa_PL9sFiAs-10" style="edgeStyle=orthogonalEdgeStyle;rounded=0;orthogonalLoop=1;jettySize=auto;html=1;entryX=0.292;entryY=0.5;entryDx=0;entryDy=0;entryPerimeter=0;exitX=1;exitY=0.5;exitDx=0;exitDy=0;" edge="1" parent="1" source="n2hWyiWzyWa_PL9sFiAs-3" target="n2hWyiWzyWa_PL9sFiAs-20">
          <mxGeometry relative="1" as="geometry">
            <mxPoint x="642.5" y="910.5" as="sourcePoint" />
          </mxGeometry>
        </mxCell>
        <mxCell id="n2hWyiWzyWa_PL9sFiAs-11" style="edgeStyle=orthogonalEdgeStyle;rounded=0;orthogonalLoop=1;jettySize=auto;html=1;entryX=0.625;entryY=0.5;entryDx=0;entryDy=0;entryPerimeter=0;" edge="1" parent="1" source="n2hWyiWzyWa_PL9sFiAs-3" target="n2hWyiWzyWa_PL9sFiAs-27">
          <mxGeometry relative="1" as="geometry" />
        </mxCell>
        <mxCell id="n2hWyiWzyWa_PL9sFiAs-15" style="edgeStyle=orthogonalEdgeStyle;rounded=0;orthogonalLoop=1;jettySize=auto;html=1;entryX=0.444;entryY=0.5;entryDx=0;entryDy=0;entryPerimeter=0;" edge="1" parent="1" source="n2hWyiWzyWa_PL9sFiAs-23" target="n2hWyiWzyWa_PL9sFiAs-31">
          <mxGeometry relative="1" as="geometry">
            <mxPoint x="992.5" y="59.97000000000003" as="targetPoint" />
          </mxGeometry>
        </mxCell>
        <mxCell id="n2hWyiWzyWa_PL9sFiAs-16" style="edgeStyle=orthogonalEdgeStyle;rounded=0;orthogonalLoop=1;jettySize=auto;html=1;entryX=0.833;entryY=0.5;entryDx=0;entryDy=0;entryPerimeter=0;exitX=0;exitY=0.5;exitDx=0;exitDy=0;" edge="1" parent="1" source="n2hWyiWzyWa_PL9sFiAs-31" target="n2hWyiWzyWa_PL9sFiAs-19">
          <mxGeometry relative="1" as="geometry">
            <mxPoint x="552.5" y="69.97000000000003" as="sourcePoint" />
          </mxGeometry>
        </mxCell>
        <mxCell id="n2hWyiWzyWa_PL9sFiAs-17" style="edgeStyle=orthogonalEdgeStyle;rounded=0;orthogonalLoop=1;jettySize=auto;html=1;entryX=0.5;entryY=0.517;entryDx=0;entryDy=0;entryPerimeter=0;" edge="1" parent="1" source="n2hWyiWzyWa_PL9sFiAs-28" target="n2hWyiWzyWa_PL9sFiAs-30">
          <mxGeometry relative="1" as="geometry" />
        </mxCell>
        <mxCell id="n2hWyiWzyWa_PL9sFiAs-18" style="edgeStyle=orthogonalEdgeStyle;rounded=0;orthogonalLoop=1;jettySize=auto;html=1;entryX=0.5;entryY=0.5;entryDx=0;entryDy=0;entryPerimeter=0;" edge="1" parent="1" source="n2hWyiWzyWa_PL9sFiAs-30" target="n2hWyiWzyWa_PL9sFiAs-24">
          <mxGeometry relative="1" as="geometry" />
        </mxCell>
        <mxCell id="n2hWyiWzyWa_PL9sFiAs-19" value="sec_roles" style="rounded=0;whiteSpace=wrap;html=1;" vertex="1" parent="1">
          <mxGeometry x="263.75" y="29.97" width="120" height="60" as="geometry" />
        </mxCell>
        <mxCell id="n2hWyiWzyWa_PL9sFiAs-20" value="tb_libros" style="rounded=0;whiteSpace=wrap;html=1;" vertex="1" parent="1">
          <mxGeometry x="687.5" y="880.5" width="120" height="60" as="geometry" />
        </mxCell>
        <mxCell id="n2hWyiWzyWa_PL9sFiAs-21" value="tb_prestamos" style="rounded=0;whiteSpace=wrap;html=1;" vertex="1" parent="1">
          <mxGeometry x="374.25" y="640" width="120" height="60" as="geometry" />
        </mxCell>
        <mxCell id="n2hWyiWzyWa_PL9sFiAs-22" value="tb_clientes" style="rounded=0;whiteSpace=wrap;html=1;" vertex="1" parent="1">
          <mxGeometry x="-30" y="640" width="120" height="60" as="geometry" />
        </mxCell>
        <mxCell id="n2hWyiWzyWa_PL9sFiAs-23" value="sec_usuarios" style="rounded=0;whiteSpace=wrap;html=1;" vertex="1" parent="1">
          <mxGeometry x="1102.54" y="29.97" width="120" height="60" as="geometry" />
        </mxCell>
        <mxCell id="n2hWyiWzyWa_PL9sFiAs-24" value="ctg_tiponoticias" style="rounded=0;whiteSpace=wrap;html=1;" vertex="1" parent="1">
          <mxGeometry x="1635" y="771" width="120" height="60" as="geometry" />
        </mxCell>
        <mxCell id="n2hWyiWzyWa_PL9sFiAs-27" value="ctg_tallas" style="rounded=0;whiteSpace=wrap;html=1;" vertex="1" parent="1">
          <mxGeometry x="235" y="880.5" width="120" height="60" as="geometry" />
        </mxCell>
        <mxCell id="n2hWyiWzyWa_PL9sFiAs-28" value="prc_noticias" style="rounded=0;whiteSpace=wrap;html=1;" vertex="1" parent="1">
          <mxGeometry x="1635" y="561" width="120" height="60" as="geometry" />
        </mxCell>
        <mxCell id="n2hWyiWzyWa_PL9sFiAs-30" value="tiene" style="rhombus;whiteSpace=wrap;html=1;" vertex="1" parent="1">
          <mxGeometry x="1650" y="670" width="90" height="60" as="geometry" />
        </mxCell>
        <mxCell id="n2hWyiWzyWa_PL9sFiAs-31" value="tiene" style="rhombus;whiteSpace=wrap;html=1;" vertex="1" parent="1">
          <mxGeometry x="880" y="29.97" width="90" height="60" as="geometry" />
        </mxCell>
        <mxCell id="n2hWyiWzyWa_PL9sFiAs-46" style="edgeStyle=orthogonalEdgeStyle;rounded=0;orthogonalLoop=1;jettySize=auto;html=1;entryX=0.444;entryY=0.4;entryDx=0;entryDy=0;entryPerimeter=0;exitX=0;exitY=0.75;exitDx=0;exitDy=0;" edge="1" parent="1" target="n2hWyiWzyWa_PL9sFiAs-47" source="n2hWyiWzyWa_PL9sFiAs-22">
          <mxGeometry relative="1" as="geometry">
            <Array as="points">
              <mxPoint x="-30" y="671" />
              <mxPoint x="-50" y="671" />
              <mxPoint x="-50" y="572" />
            </Array>
            <mxPoint x="-29.999999999999545" y="802" as="sourcePoint" />
          </mxGeometry>
        </mxCell>
        <mxCell id="n2hWyiWzyWa_PL9sFiAs-47" value="&lt;u&gt;PK id_cliente&lt;span style=&quot;white-space: pre;&quot;&gt;&#x9;&lt;/span&gt;&lt;/u&gt;" style="ellipse;whiteSpace=wrap;html=1;" vertex="1" parent="1">
          <mxGeometry x="-160" y="552" width="90" height="50" as="geometry" />
        </mxCell>
        <mxCell id="n2hWyiWzyWa_PL9sFiAs-55" style="edgeStyle=orthogonalEdgeStyle;rounded=0;orthogonalLoop=1;jettySize=auto;html=1;entryX=0.533;entryY=0.5;entryDx=0;entryDy=0;entryPerimeter=0;" edge="1" parent="1" source="n2hWyiWzyWa_PL9sFiAs-2" target="n2hWyiWzyWa_PL9sFiAs-104">
          <mxGeometry relative="1" as="geometry">
            <Array as="points">
              <mxPoint x="770" y="682" />
              <mxPoint x="770" y="682" />
            </Array>
          </mxGeometry>
        </mxCell>
        <mxCell id="n2hWyiWzyWa_PL9sFiAs-56" style="edgeStyle=orthogonalEdgeStyle;rounded=0;orthogonalLoop=1;jettySize=auto;html=1;entryX=0.422;entryY=0.625;entryDx=0;entryDy=0;entryPerimeter=0;" edge="1" parent="1" source="n2hWyiWzyWa_PL9sFiAs-2" target="n2hWyiWzyWa_PL9sFiAs-102">
          <mxGeometry relative="1" as="geometry" />
        </mxCell>
        <mxCell id="n2hWyiWzyWa_PL9sFiAs-57" style="edgeStyle=orthogonalEdgeStyle;rounded=0;orthogonalLoop=1;jettySize=auto;html=1;entryX=0.483;entryY=0.375;entryDx=0;entryDy=0;entryPerimeter=0;" edge="1" parent="1" source="n2hWyiWzyWa_PL9sFiAs-2" target="n2hWyiWzyWa_PL9sFiAs-103">
          <mxGeometry relative="1" as="geometry" />
        </mxCell>
        <mxCell id="n2hWyiWzyWa_PL9sFiAs-58" style="edgeStyle=orthogonalEdgeStyle;rounded=0;orthogonalLoop=1;jettySize=auto;html=1;entryX=0.55;entryY=0.75;entryDx=0;entryDy=0;entryPerimeter=0;" edge="1" parent="1" source="n2hWyiWzyWa_PL9sFiAs-21" target="n2hWyiWzyWa_PL9sFiAs-98">
          <mxGeometry relative="1" as="geometry" />
        </mxCell>
        <mxCell id="n2hWyiWzyWa_PL9sFiAs-59" style="edgeStyle=orthogonalEdgeStyle;rounded=0;orthogonalLoop=1;jettySize=auto;html=1;entryX=0.517;entryY=0.75;entryDx=0;entryDy=0;entryPerimeter=0;" edge="1" parent="1" source="n2hWyiWzyWa_PL9sFiAs-21" target="n2hWyiWzyWa_PL9sFiAs-99">
          <mxGeometry relative="1" as="geometry" />
        </mxCell>
        <mxCell id="n2hWyiWzyWa_PL9sFiAs-60" style="edgeStyle=orthogonalEdgeStyle;rounded=0;orthogonalLoop=1;jettySize=auto;html=1;entryX=0.583;entryY=0.5;entryDx=0;entryDy=0;entryPerimeter=0;" edge="1" parent="1" source="n2hWyiWzyWa_PL9sFiAs-21" target="n2hWyiWzyWa_PL9sFiAs-101">
          <mxGeometry relative="1" as="geometry" />
        </mxCell>
        <mxCell id="n2hWyiWzyWa_PL9sFiAs-61" style="edgeStyle=orthogonalEdgeStyle;rounded=0;orthogonalLoop=1;jettySize=auto;html=1;entryX=0.512;entryY=0.6;entryDx=0;entryDy=0;entryPerimeter=0;" edge="1" parent="1" source="n2hWyiWzyWa_PL9sFiAs-21" target="n2hWyiWzyWa_PL9sFiAs-97">
          <mxGeometry relative="1" as="geometry" />
        </mxCell>
        <mxCell id="n2hWyiWzyWa_PL9sFiAs-62" style="edgeStyle=orthogonalEdgeStyle;rounded=0;orthogonalLoop=1;jettySize=auto;html=1;entryX=0.467;entryY=0.375;entryDx=0;entryDy=0;entryPerimeter=0;" edge="1" parent="1" source="n2hWyiWzyWa_PL9sFiAs-21" target="n2hWyiWzyWa_PL9sFiAs-100">
          <mxGeometry relative="1" as="geometry" />
        </mxCell>
        <mxCell id="n2hWyiWzyWa_PL9sFiAs-63" style="edgeStyle=orthogonalEdgeStyle;rounded=0;orthogonalLoop=1;jettySize=auto;html=1;entryX=0.533;entryY=0.413;entryDx=0;entryDy=0;entryPerimeter=0;" edge="1" parent="1" source="n2hWyiWzyWa_PL9sFiAs-20" target="n2hWyiWzyWa_PL9sFiAs-116">
          <mxGeometry relative="1" as="geometry" />
        </mxCell>
        <mxCell id="n2hWyiWzyWa_PL9sFiAs-64" style="edgeStyle=orthogonalEdgeStyle;rounded=0;orthogonalLoop=1;jettySize=auto;html=1;entryX=0.8;entryY=0.488;entryDx=0;entryDy=0;entryPerimeter=0;" edge="1" parent="1" source="n2hWyiWzyWa_PL9sFiAs-20" target="n2hWyiWzyWa_PL9sFiAs-112">
          <mxGeometry relative="1" as="geometry">
            <Array as="points">
              <mxPoint x="832.5" y="910.5" />
              <mxPoint x="832.5" y="863.5" />
            </Array>
          </mxGeometry>
        </mxCell>
        <mxCell id="n2hWyiWzyWa_PL9sFiAs-65" style="edgeStyle=orthogonalEdgeStyle;rounded=0;orthogonalLoop=1;jettySize=auto;html=1;entryX=0.444;entryY=0.488;entryDx=0;entryDy=0;entryPerimeter=0;" edge="1" parent="1" source="n2hWyiWzyWa_PL9sFiAs-20" target="n2hWyiWzyWa_PL9sFiAs-115">
          <mxGeometry relative="1" as="geometry">
            <Array as="points">
              <mxPoint x="832.5" y="910.5" />
              <mxPoint x="832.5" y="813.5" />
            </Array>
          </mxGeometry>
        </mxCell>
        <mxCell id="n2hWyiWzyWa_PL9sFiAs-66" style="edgeStyle=orthogonalEdgeStyle;rounded=0;orthogonalLoop=1;jettySize=auto;html=1;entryX=0.533;entryY=0.813;entryDx=0;entryDy=0;entryPerimeter=0;" edge="1" parent="1" source="n2hWyiWzyWa_PL9sFiAs-20" target="n2hWyiWzyWa_PL9sFiAs-113">
          <mxGeometry relative="1" as="geometry">
            <Array as="points">
              <mxPoint x="832.5" y="910.5" />
              <mxPoint x="832.5" y="973.5" />
            </Array>
          </mxGeometry>
        </mxCell>
        <mxCell id="n2hWyiWzyWa_PL9sFiAs-67" style="edgeStyle=orthogonalEdgeStyle;rounded=0;orthogonalLoop=1;jettySize=auto;html=1;entryX=0.4;entryY=0.663;entryDx=0;entryDy=0;entryPerimeter=0;" edge="1" parent="1" source="n2hWyiWzyWa_PL9sFiAs-20" target="n2hWyiWzyWa_PL9sFiAs-114">
          <mxGeometry relative="1" as="geometry">
            <Array as="points">
              <mxPoint x="832.5" y="910.5" />
              <mxPoint x="832.5" y="1013.5" />
            </Array>
          </mxGeometry>
        </mxCell>
        <mxCell id="n2hWyiWzyWa_PL9sFiAs-73" style="edgeStyle=orthogonalEdgeStyle;rounded=0;orthogonalLoop=1;jettySize=auto;html=1;entryX=0.5;entryY=0.75;entryDx=0;entryDy=0;entryPerimeter=0;" edge="1" parent="1" source="n2hWyiWzyWa_PL9sFiAs-27" target="n2hWyiWzyWa_PL9sFiAs-126">
          <mxGeometry relative="1" as="geometry" />
        </mxCell>
        <mxCell id="n2hWyiWzyWa_PL9sFiAs-74" style="edgeStyle=orthogonalEdgeStyle;rounded=0;orthogonalLoop=1;jettySize=auto;html=1;entryX=0.5;entryY=0.413;entryDx=0;entryDy=0;entryPerimeter=0;" edge="1" parent="1" source="n2hWyiWzyWa_PL9sFiAs-27" target="n2hWyiWzyWa_PL9sFiAs-122">
          <mxGeometry relative="1" as="geometry" />
        </mxCell>
        <mxCell id="n2hWyiWzyWa_PL9sFiAs-75" style="edgeStyle=orthogonalEdgeStyle;rounded=0;orthogonalLoop=1;jettySize=auto;html=1;entryX=0.556;entryY=0.75;entryDx=0;entryDy=0;entryPerimeter=0;" edge="1" parent="1" source="n2hWyiWzyWa_PL9sFiAs-27" target="n2hWyiWzyWa_PL9sFiAs-125">
          <mxGeometry relative="1" as="geometry">
            <Array as="points">
              <mxPoint x="240" y="993.5" />
            </Array>
          </mxGeometry>
        </mxCell>
        <mxCell id="n2hWyiWzyWa_PL9sFiAs-79" style="edgeStyle=orthogonalEdgeStyle;rounded=0;orthogonalLoop=1;jettySize=auto;html=1;entryX=0.556;entryY=0.6;entryDx=0;entryDy=0;entryPerimeter=0;" edge="1" parent="1" source="n2hWyiWzyWa_PL9sFiAs-23" target="n2hWyiWzyWa_PL9sFiAs-92">
          <mxGeometry relative="1" as="geometry">
            <Array as="points">
              <mxPoint x="1152.54" y="-0.03" />
              <mxPoint x="1042.54" y="-0.03" />
            </Array>
          </mxGeometry>
        </mxCell>
        <mxCell id="n2hWyiWzyWa_PL9sFiAs-80" style="edgeStyle=orthogonalEdgeStyle;rounded=0;orthogonalLoop=1;jettySize=auto;html=1;entryX=0.5;entryY=0.4;entryDx=0;entryDy=0;entryPerimeter=0;" edge="1" parent="1" source="n2hWyiWzyWa_PL9sFiAs-23" target="n2hWyiWzyWa_PL9sFiAs-91">
          <mxGeometry relative="1" as="geometry">
            <Array as="points">
              <mxPoint x="1152.54" y="9.97" />
              <mxPoint x="1152.54" y="9.97" />
            </Array>
          </mxGeometry>
        </mxCell>
        <mxCell id="n2hWyiWzyWa_PL9sFiAs-81" style="edgeStyle=orthogonalEdgeStyle;rounded=0;orthogonalLoop=1;jettySize=auto;html=1;entryX=0.556;entryY=0.4;entryDx=0;entryDy=0;entryPerimeter=0;" edge="1" parent="1" source="n2hWyiWzyWa_PL9sFiAs-23" target="n2hWyiWzyWa_PL9sFiAs-89">
          <mxGeometry relative="1" as="geometry">
            <Array as="points">
              <mxPoint x="1152.54" y="-0.03" />
              <mxPoint x="1272.54" y="-0.03" />
            </Array>
          </mxGeometry>
        </mxCell>
        <mxCell id="n2hWyiWzyWa_PL9sFiAs-82" style="edgeStyle=orthogonalEdgeStyle;rounded=0;orthogonalLoop=1;jettySize=auto;html=1;entryX=0.444;entryY=0.4;entryDx=0;entryDy=0;entryPerimeter=0;" edge="1" parent="1" source="n2hWyiWzyWa_PL9sFiAs-23" target="n2hWyiWzyWa_PL9sFiAs-90">
          <mxGeometry relative="1" as="geometry">
            <Array as="points">
              <mxPoint x="1152.54" y="-0.03" />
              <mxPoint x="1362.54" y="-0.03" />
            </Array>
          </mxGeometry>
        </mxCell>
        <mxCell id="n2hWyiWzyWa_PL9sFiAs-83" style="edgeStyle=orthogonalEdgeStyle;rounded=0;orthogonalLoop=1;jettySize=auto;html=1;entryX=0.667;entryY=0.4;entryDx=0;entryDy=0;entryPerimeter=0;" edge="1" parent="1" source="n2hWyiWzyWa_PL9sFiAs-23" target="n2hWyiWzyWa_PL9sFiAs-88">
          <mxGeometry relative="1" as="geometry">
            <Array as="points">
              <mxPoint x="1152.54" y="-0.03" />
              <mxPoint x="1492.54" y="-0.03" />
            </Array>
          </mxGeometry>
        </mxCell>
        <mxCell id="n2hWyiWzyWa_PL9sFiAs-84" style="edgeStyle=orthogonalEdgeStyle;rounded=0;orthogonalLoop=1;jettySize=auto;html=1;entryX=0.556;entryY=0.6;entryDx=0;entryDy=0;entryPerimeter=0;" edge="1" parent="1" target="n2hWyiWzyWa_PL9sFiAs-87">
          <mxGeometry relative="1" as="geometry">
            <Array as="points">
              <mxPoint x="1142.54" y="110" />
              <mxPoint x="1382.54" y="110" />
              <mxPoint x="1382.54" y="160" />
            </Array>
            <mxPoint x="1142.5" y="90.00000000000003" as="sourcePoint" />
          </mxGeometry>
        </mxCell>
        <mxCell id="n2hWyiWzyWa_PL9sFiAs-85" style="edgeStyle=orthogonalEdgeStyle;rounded=0;orthogonalLoop=1;jettySize=auto;html=1;entryX=0.556;entryY=0.6;entryDx=0;entryDy=0;entryPerimeter=0;" edge="1" parent="1" target="n2hWyiWzyWa_PL9sFiAs-86">
          <mxGeometry relative="1" as="geometry">
            <mxPoint x="1142.54" y="90.03" as="sourcePoint" />
            <Array as="points">
              <mxPoint x="1142.54" y="110" />
              <mxPoint x="1282.54" y="110" />
              <mxPoint x="1282.54" y="150" />
              <mxPoint x="1292.54" y="150" />
            </Array>
          </mxGeometry>
        </mxCell>
        <mxCell id="n2hWyiWzyWa_PL9sFiAs-86" value="email" style="ellipse;whiteSpace=wrap;html=1;" vertex="1" parent="1">
          <mxGeometry x="1242.54" y="130.03" width="90" height="50" as="geometry" />
        </mxCell>
        <mxCell id="n2hWyiWzyWa_PL9sFiAs-87" value="pin" style="ellipse;whiteSpace=wrap;html=1;" vertex="1" parent="1">
          <mxGeometry x="1342.54" y="130.03" width="90" height="50" as="geometry" />
        </mxCell>
        <mxCell id="n2hWyiWzyWa_PL9sFiAs-88" value="apellidos" style="ellipse;whiteSpace=wrap;html=1;" vertex="1" parent="1">
          <mxGeometry x="1432.54" y="-90.03" width="90" height="50" as="geometry" />
        </mxCell>
        <mxCell id="n2hWyiWzyWa_PL9sFiAs-89" value="clave" style="ellipse;whiteSpace=wrap;html=1;" vertex="1" parent="1">
          <mxGeometry x="1222.54" y="-90.03" width="90" height="50" as="geometry" />
        </mxCell>
        <mxCell id="n2hWyiWzyWa_PL9sFiAs-90" value="nombres" style="ellipse;whiteSpace=wrap;html=1;" vertex="1" parent="1">
          <mxGeometry x="1322.54" y="-90.03" width="90" height="50" as="geometry" />
        </mxCell>
        <mxCell id="n2hWyiWzyWa_PL9sFiAs-91" value="id_cliente&lt;span style=&quot;white-space: pre;&quot;&gt;&#x9;&lt;/span&gt;" style="ellipse;whiteSpace=wrap;html=1;" vertex="1" parent="1">
          <mxGeometry x="1107.54" y="-90.03" width="90" height="50" as="geometry" />
        </mxCell>
        <mxCell id="n2hWyiWzyWa_PL9sFiAs-92" value="&lt;u&gt;PK id_usuario&lt;/u&gt;" style="ellipse;whiteSpace=wrap;html=1;" vertex="1" parent="1">
          <mxGeometry x="992.54" y="-90.03" width="90" height="50" as="geometry" />
        </mxCell>
        <mxCell id="n2hWyiWzyWa_PL9sFiAs-93" style="edgeStyle=orthogonalEdgeStyle;rounded=0;orthogonalLoop=1;jettySize=auto;html=1;entryX=0.583;entryY=0.8;entryDx=0;entryDy=0;entryPerimeter=0;" edge="1" parent="1" target="n2hWyiWzyWa_PL9sFiAs-95">
          <mxGeometry relative="1" as="geometry">
            <mxPoint x="1142.54" y="90.03" as="sourcePoint" />
            <Array as="points">
              <mxPoint x="1142.54" y="110.03" />
              <mxPoint x="1104.54" y="110.03" />
            </Array>
          </mxGeometry>
        </mxCell>
        <mxCell id="n2hWyiWzyWa_PL9sFiAs-94" style="edgeStyle=orthogonalEdgeStyle;rounded=0;orthogonalLoop=1;jettySize=auto;html=1;entryX=0.444;entryY=0.8;entryDx=0;entryDy=0;entryPerimeter=0;" edge="1" parent="1" target="n2hWyiWzyWa_PL9sFiAs-96">
          <mxGeometry relative="1" as="geometry">
            <mxPoint x="1142.54" y="90.03" as="sourcePoint" />
            <Array as="points">
              <mxPoint x="1142.54" y="110.03" />
              <mxPoint x="1182.54" y="110.03" />
            </Array>
          </mxGeometry>
        </mxCell>
        <mxCell id="n2hWyiWzyWa_PL9sFiAs-95" value="usuario" style="ellipse;whiteSpace=wrap;html=1;" vertex="1" parent="1">
          <mxGeometry x="1052.54" y="130.03" width="90" height="50" as="geometry" />
        </mxCell>
        <mxCell id="n2hWyiWzyWa_PL9sFiAs-96" value="estado" style="ellipse;whiteSpace=wrap;html=1;" vertex="1" parent="1">
          <mxGeometry x="1152.54" y="130.03" width="90" height="50" as="geometry" />
        </mxCell>
        <mxCell id="n2hWyiWzyWa_PL9sFiAs-97" value="fecha_devolucion" style="ellipse;whiteSpace=wrap;html=1;" vertex="1" parent="1">
          <mxGeometry x="438.25" y="576" width="111.75" height="40" as="geometry" />
        </mxCell>
        <mxCell id="n2hWyiWzyWa_PL9sFiAs-98" value="&lt;u&gt;PK id_prestamo&lt;/u&gt;" style="ellipse;whiteSpace=wrap;html=1;" vertex="1" parent="1">
          <mxGeometry x="478" y="740" width="105" height="40" as="geometry" />
        </mxCell>
        <mxCell id="n2hWyiWzyWa_PL9sFiAs-99" value="FK_id_cliente" style="ellipse;whiteSpace=wrap;html=1;" vertex="1" parent="1">
          <mxGeometry x="395.5" y="740" width="75" height="40" as="geometry" />
        </mxCell>
        <mxCell id="n2hWyiWzyWa_PL9sFiAs-100" value="fecha_inicio" style="ellipse;whiteSpace=wrap;html=1;" vertex="1" parent="1">
          <mxGeometry x="354.25" y="575" width="75" height="40" as="geometry" />
        </mxCell>
        <mxCell id="n2hWyiWzyWa_PL9sFiAs-101" value="estado" style="ellipse;whiteSpace=wrap;html=1;" vertex="1" parent="1">
          <mxGeometry x="315.5" y="740" width="75" height="40" as="geometry" />
        </mxCell>
        <mxCell id="n2hWyiWzyWa_PL9sFiAs-102" value="FK_id_libro" style="ellipse;whiteSpace=wrap;html=1;" vertex="1" parent="1">
          <mxGeometry x="749.25" y="575" width="90.75" height="40" as="geometry" />
        </mxCell>
        <mxCell id="n2hWyiWzyWa_PL9sFiAs-103" value="FK_id_prestamo" style="ellipse;whiteSpace=wrap;html=1;" vertex="1" parent="1">
          <mxGeometry x="640" y="575" width="101.75" height="40" as="geometry" />
        </mxCell>
        <mxCell id="n2hWyiWzyWa_PL9sFiAs-104" value="&lt;u&gt;PK_id_detalle prestamo&lt;/u&gt;" style="ellipse;whiteSpace=wrap;html=1;" vertex="1" parent="1">
          <mxGeometry x="875" y="662" width="95" height="40" as="geometry" />
        </mxCell>
        <mxCell id="n2hWyiWzyWa_PL9sFiAs-112" value="FK_id_genero_libro" style="ellipse;whiteSpace=wrap;html=1;" vertex="1" parent="1">
          <mxGeometry x="862.5" y="844" width="137.5" height="40" as="geometry" />
        </mxCell>
        <mxCell id="n2hWyiWzyWa_PL9sFiAs-113" value="stock" style="ellipse;whiteSpace=wrap;html=1;" vertex="1" parent="1">
          <mxGeometry x="862.5" y="941" width="75" height="40" as="geometry" />
        </mxCell>
        <mxCell id="n2hWyiWzyWa_PL9sFiAs-114" value="precio" style="ellipse;whiteSpace=wrap;html=1;" vertex="1" parent="1">
          <mxGeometry x="862.5" y="987" width="75" height="40" as="geometry" />
        </mxCell>
        <mxCell id="n2hWyiWzyWa_PL9sFiAs-115" value="&lt;u&gt;PK_id_libro&lt;/u&gt;" style="ellipse;whiteSpace=wrap;html=1;" vertex="1" parent="1">
          <mxGeometry x="862.5" y="794" width="120" height="40" as="geometry" />
        </mxCell>
        <mxCell id="n2hWyiWzyWa_PL9sFiAs-116" value="FK_id_talla" style="ellipse;whiteSpace=wrap;html=1;" vertex="1" parent="1">
          <mxGeometry x="862.5" y="894" width="75" height="40" as="geometry" />
        </mxCell>
        <mxCell id="n2hWyiWzyWa_PL9sFiAs-122" value="&lt;u&gt;PK id_talla&lt;/u&gt;" style="ellipse;whiteSpace=wrap;html=1;" vertex="1" parent="1">
          <mxGeometry x="125" y="894" width="90" height="40" as="geometry" />
        </mxCell>
        <mxCell id="n2hWyiWzyWa_PL9sFiAs-125" value="descripcion" style="ellipse;whiteSpace=wrap;html=1;" vertex="1" parent="1">
          <mxGeometry x="130" y="963.5" width="90" height="40" as="geometry" />
        </mxCell>
        <mxCell id="n2hWyiWzyWa_PL9sFiAs-126" value="estado" style="ellipse;whiteSpace=wrap;html=1;" vertex="1" parent="1">
          <mxGeometry x="250" y="963.5" width="90" height="40" as="geometry" />
        </mxCell>
        <mxCell id="n2hWyiWzyWa_PL9sFiAs-128" style="edgeStyle=orthogonalEdgeStyle;rounded=0;orthogonalLoop=1;jettySize=auto;html=1;entryX=0.533;entryY=0.563;entryDx=0;entryDy=0;entryPerimeter=0;" edge="1" parent="1" source="n2hWyiWzyWa_PL9sFiAs-24" target="n2hWyiWzyWa_PL9sFiAs-139">
          <mxGeometry relative="1" as="geometry" />
        </mxCell>
        <mxCell id="n2hWyiWzyWa_PL9sFiAs-129" style="edgeStyle=orthogonalEdgeStyle;rounded=0;orthogonalLoop=1;jettySize=auto;html=1;entryX=0.533;entryY=0.813;entryDx=0;entryDy=0;entryPerimeter=0;" edge="1" parent="1" source="n2hWyiWzyWa_PL9sFiAs-24" target="n2hWyiWzyWa_PL9sFiAs-138">
          <mxGeometry relative="1" as="geometry">
            <Array as="points">
              <mxPoint x="1695" y="861" />
              <mxPoint x="1595" y="861" />
            </Array>
          </mxGeometry>
        </mxCell>
        <mxCell id="n2hWyiWzyWa_PL9sFiAs-130" style="edgeStyle=orthogonalEdgeStyle;rounded=0;orthogonalLoop=1;jettySize=auto;html=1;entryX=0.533;entryY=0.813;entryDx=0;entryDy=0;entryPerimeter=0;" edge="1" parent="1" source="n2hWyiWzyWa_PL9sFiAs-24" target="n2hWyiWzyWa_PL9sFiAs-140">
          <mxGeometry relative="1" as="geometry">
            <Array as="points">
              <mxPoint x="1695" y="861" />
              <mxPoint x="1795" y="861" />
            </Array>
          </mxGeometry>
        </mxCell>
        <mxCell id="n2hWyiWzyWa_PL9sFiAs-131" style="edgeStyle=orthogonalEdgeStyle;rounded=0;orthogonalLoop=1;jettySize=auto;html=1;entryX=0.467;entryY=0.25;entryDx=0;entryDy=0;entryPerimeter=0;" edge="1" parent="1" source="n2hWyiWzyWa_PL9sFiAs-28" target="n2hWyiWzyWa_PL9sFiAs-143">
          <mxGeometry relative="1" as="geometry">
            <Array as="points">
              <mxPoint x="1695" y="541" />
              <mxPoint x="1500" y="541" />
              <mxPoint x="1500" y="490" />
            </Array>
          </mxGeometry>
        </mxCell>
        <mxCell id="n2hWyiWzyWa_PL9sFiAs-132" style="edgeStyle=orthogonalEdgeStyle;rounded=0;orthogonalLoop=1;jettySize=auto;html=1;entryX=0.467;entryY=0.25;entryDx=0;entryDy=0;entryPerimeter=0;" edge="1" parent="1" source="n2hWyiWzyWa_PL9sFiAs-28" target="n2hWyiWzyWa_PL9sFiAs-141">
          <mxGeometry relative="1" as="geometry" />
        </mxCell>
        <mxCell id="n2hWyiWzyWa_PL9sFiAs-133" style="edgeStyle=orthogonalEdgeStyle;rounded=0;orthogonalLoop=1;jettySize=auto;html=1;entryX=0.56;entryY=0.25;entryDx=0;entryDy=0;entryPerimeter=0;" edge="1" parent="1" source="n2hWyiWzyWa_PL9sFiAs-28" target="n2hWyiWzyWa_PL9sFiAs-145">
          <mxGeometry relative="1" as="geometry" />
        </mxCell>
        <mxCell id="n2hWyiWzyWa_PL9sFiAs-134" style="edgeStyle=orthogonalEdgeStyle;rounded=0;orthogonalLoop=1;jettySize=auto;html=1;entryX=0.52;entryY=0.25;entryDx=0;entryDy=0;entryPerimeter=0;" edge="1" parent="1" source="n2hWyiWzyWa_PL9sFiAs-28" target="n2hWyiWzyWa_PL9sFiAs-146">
          <mxGeometry relative="1" as="geometry">
            <Array as="points">
              <mxPoint x="1695" y="541" />
              <mxPoint x="1795" y="541" />
            </Array>
          </mxGeometry>
        </mxCell>
        <mxCell id="n2hWyiWzyWa_PL9sFiAs-135" style="edgeStyle=orthogonalEdgeStyle;rounded=0;orthogonalLoop=1;jettySize=auto;html=1;entryX=0.467;entryY=0.25;entryDx=0;entryDy=0;entryPerimeter=0;" edge="1" parent="1" source="n2hWyiWzyWa_PL9sFiAs-28" target="n2hWyiWzyWa_PL9sFiAs-142">
          <mxGeometry relative="1" as="geometry">
            <Array as="points">
              <mxPoint x="1695" y="541" />
              <mxPoint x="1875" y="541" />
            </Array>
          </mxGeometry>
        </mxCell>
        <mxCell id="n2hWyiWzyWa_PL9sFiAs-136" style="edgeStyle=orthogonalEdgeStyle;rounded=0;orthogonalLoop=1;jettySize=auto;html=1;entryX=0.733;entryY=0.425;entryDx=0;entryDy=0;entryPerimeter=0;" edge="1" parent="1" source="n2hWyiWzyWa_PL9sFiAs-28" target="n2hWyiWzyWa_PL9sFiAs-144">
          <mxGeometry relative="1" as="geometry" />
        </mxCell>
        <mxCell id="n2hWyiWzyWa_PL9sFiAs-137" style="edgeStyle=orthogonalEdgeStyle;rounded=0;orthogonalLoop=1;jettySize=auto;html=1;entryX=0.72;entryY=0.575;entryDx=0;entryDy=0;entryPerimeter=0;" edge="1" parent="1" source="n2hWyiWzyWa_PL9sFiAs-28" target="n2hWyiWzyWa_PL9sFiAs-147">
          <mxGeometry relative="1" as="geometry" />
        </mxCell>
        <mxCell id="n2hWyiWzyWa_PL9sFiAs-138" value="&lt;u&gt;PK id_tiponoticia&lt;/u&gt;" style="ellipse;whiteSpace=wrap;html=1;" vertex="1" parent="1">
          <mxGeometry x="1520" y="878.5" width="110" height="40" as="geometry" />
        </mxCell>
        <mxCell id="n2hWyiWzyWa_PL9sFiAs-139" value="descripcion" style="ellipse;whiteSpace=wrap;html=1;" vertex="1" parent="1">
          <mxGeometry x="1655" y="878.5" width="75" height="40" as="geometry" />
        </mxCell>
        <mxCell id="n2hWyiWzyWa_PL9sFiAs-140" value="estado" style="ellipse;whiteSpace=wrap;html=1;" vertex="1" parent="1">
          <mxGeometry x="1755" y="878.5" width="75" height="40" as="geometry" />
        </mxCell>
        <mxCell id="n2hWyiWzyWa_PL9sFiAs-141" value="FK_id_tiponoticia" style="ellipse;whiteSpace=wrap;html=1;" vertex="1" parent="1">
          <mxGeometry x="1550" y="481" width="115" height="40" as="geometry" />
        </mxCell>
        <mxCell id="n2hWyiWzyWa_PL9sFiAs-142" value="titulo" style="ellipse;whiteSpace=wrap;html=1;" vertex="1" parent="1">
          <mxGeometry x="1840" y="481" width="75" height="40" as="geometry" />
        </mxCell>
        <mxCell id="n2hWyiWzyWa_PL9sFiAs-143" value="&lt;u&gt;PK id_noticia&lt;/u&gt;" style="ellipse;whiteSpace=wrap;html=1;" vertex="1" parent="1">
          <mxGeometry x="1450" y="480" width="95" height="40" as="geometry" />
        </mxCell>
        <mxCell id="n2hWyiWzyWa_PL9sFiAs-144" value="fecha" style="ellipse;whiteSpace=wrap;html=1;" vertex="1" parent="1">
          <mxGeometry x="1840" y="564" width="75" height="40" as="geometry" />
        </mxCell>
        <mxCell id="n2hWyiWzyWa_PL9sFiAs-145" value="foto" style="ellipse;whiteSpace=wrap;html=1;" vertex="1" parent="1">
          <mxGeometry x="1673" y="481" width="75" height="40" as="geometry" />
        </mxCell>
        <mxCell id="n2hWyiWzyWa_PL9sFiAs-146" value="contenido" style="ellipse;whiteSpace=wrap;html=1;" vertex="1" parent="1">
          <mxGeometry x="1756" y="481" width="75" height="40" as="geometry" />
        </mxCell>
        <mxCell id="n2hWyiWzyWa_PL9sFiAs-147" value="estado" style="ellipse;whiteSpace=wrap;html=1;" vertex="1" parent="1">
          <mxGeometry x="1841" y="618" width="75" height="40" as="geometry" />
        </mxCell>
        <mxCell id="n2hWyiWzyWa_PL9sFiAs-148" style="edgeStyle=orthogonalEdgeStyle;rounded=0;orthogonalLoop=1;jettySize=auto;html=1;entryX=0.538;entryY=0.8;entryDx=0;entryDy=0;entryPerimeter=0;" edge="1" parent="1" source="n2hWyiWzyWa_PL9sFiAs-19" target="n2hWyiWzyWa_PL9sFiAs-151">
          <mxGeometry relative="1" as="geometry" />
        </mxCell>
        <mxCell id="n2hWyiWzyWa_PL9sFiAs-149" style="edgeStyle=orthogonalEdgeStyle;rounded=0;orthogonalLoop=1;jettySize=auto;html=1;entryX=0.5;entryY=0.38;entryDx=0;entryDy=0;entryPerimeter=0;" edge="1" parent="1" source="n2hWyiWzyWa_PL9sFiAs-19" target="n2hWyiWzyWa_PL9sFiAs-150">
          <mxGeometry relative="1" as="geometry">
            <Array as="points">
              <mxPoint x="323.75" y="10" />
              <mxPoint x="209.75" y="10" />
            </Array>
          </mxGeometry>
        </mxCell>
        <mxCell id="n2hWyiWzyWa_PL9sFiAs-150" value="&lt;u&gt;PK_id_rol&lt;/u&gt;" style="ellipse;whiteSpace=wrap;html=1;" vertex="1" parent="1">
          <mxGeometry x="169" y="-60" width="100" height="50" as="geometry" />
        </mxCell>
        <mxCell id="n2hWyiWzyWa_PL9sFiAs-151" value="descripcion" style="ellipse;whiteSpace=wrap;html=1;" vertex="1" parent="1">
          <mxGeometry x="356.25" y="-60" width="100" height="50" as="geometry" />
        </mxCell>
        <mxCell id="n2hWyiWzyWa_PL9sFiAs-152" value="&lt;font style=&quot;font-size: 9px;&quot;&gt;1&lt;/font&gt;" style="text;html=1;strokeColor=none;fillColor=none;align=center;verticalAlign=middle;whiteSpace=wrap;rounded=0;" vertex="1" parent="1">
          <mxGeometry x="90" y="647" width="25" height="15" as="geometry" />
        </mxCell>
        <mxCell id="n2hWyiWzyWa_PL9sFiAs-153" value="&lt;font style=&quot;font-size: 9px;&quot;&gt;N&lt;/font&gt;" style="text;html=1;strokeColor=none;fillColor=none;align=center;verticalAlign=middle;whiteSpace=wrap;rounded=0;" vertex="1" parent="1">
          <mxGeometry x="345.5" y="645" width="25" height="15" as="geometry" />
        </mxCell>
        <mxCell id="n2hWyiWzyWa_PL9sFiAs-154" value="&lt;font style=&quot;font-size: 9px;&quot;&gt;1&lt;/font&gt;" style="text;html=1;strokeColor=none;fillColor=none;align=center;verticalAlign=middle;whiteSpace=wrap;rounded=0;" vertex="1" parent="1">
          <mxGeometry x="503" y="645" width="25" height="15" as="geometry" />
        </mxCell>
        <mxCell id="n2hWyiWzyWa_PL9sFiAs-155" value="&lt;font style=&quot;font-size: 9px;&quot;&gt;N:M&lt;/font&gt;" style="text;html=1;strokeColor=none;fillColor=none;align=center;verticalAlign=middle;whiteSpace=wrap;rounded=0;" vertex="1" parent="1">
          <mxGeometry x="700" y="685" width="25" height="15" as="geometry" />
        </mxCell>
        <mxCell id="n2hWyiWzyWa_PL9sFiAs-157" value="&lt;font style=&quot;font-size: 9px;&quot;&gt;1&lt;/font&gt;" style="text;html=1;strokeColor=none;fillColor=none;align=center;verticalAlign=middle;whiteSpace=wrap;rounded=0;" vertex="1" parent="1">
          <mxGeometry x="712.5" y="856.5" width="25" height="15" as="geometry" />
        </mxCell>
        <mxCell id="n2hWyiWzyWa_PL9sFiAs-159" value="&lt;font style=&quot;font-size: 9px;&quot;&gt;N&lt;/font&gt;" style="text;html=1;strokeColor=none;fillColor=none;align=center;verticalAlign=middle;whiteSpace=wrap;rounded=0;" vertex="1" parent="1">
          <mxGeometry x="651.5" y="890" width="25" height="15" as="geometry" />
        </mxCell>
        <mxCell id="n2hWyiWzyWa_PL9sFiAs-160" value="&lt;font style=&quot;font-size: 9px;&quot;&gt;1&lt;/font&gt;" style="text;html=1;strokeColor=none;fillColor=none;align=center;verticalAlign=middle;whiteSpace=wrap;rounded=0;" vertex="1" parent="1">
          <mxGeometry x="393.75" y="40" width="25" height="15" as="geometry" />
        </mxCell>
        <mxCell id="n2hWyiWzyWa_PL9sFiAs-161" value="&lt;font style=&quot;font-size: 9px;&quot;&gt;N&lt;/font&gt;" style="text;html=1;strokeColor=none;fillColor=none;align=center;verticalAlign=middle;whiteSpace=wrap;rounded=0;" vertex="1" parent="1">
          <mxGeometry x="1067.5" y="40" width="25" height="15" as="geometry" />
        </mxCell>
        <mxCell id="n2hWyiWzyWa_PL9sFiAs-162" value="&lt;font style=&quot;font-size: 9px;&quot;&gt;1&lt;/font&gt;" style="text;html=1;strokeColor=none;fillColor=none;align=center;verticalAlign=middle;whiteSpace=wrap;rounded=0;" vertex="1" parent="1">
          <mxGeometry x="355" y="894" width="25" height="15" as="geometry" />
        </mxCell>
        <mxCell id="n2hWyiWzyWa_PL9sFiAs-166" value="&lt;font style=&quot;font-size: 9px;&quot;&gt;1&lt;/font&gt;" style="text;html=1;strokeColor=none;fillColor=none;align=center;verticalAlign=middle;whiteSpace=wrap;rounded=0;" vertex="1" parent="1">
          <mxGeometry x="1670" y="742.5" width="25" height="15" as="geometry" />
        </mxCell>
        <mxCell id="n2hWyiWzyWa_PL9sFiAs-167" value="&lt;font style=&quot;font-size: 9px;&quot;&gt;N&lt;/font&gt;" style="text;html=1;strokeColor=none;fillColor=none;align=center;verticalAlign=middle;whiteSpace=wrap;rounded=0;" vertex="1" parent="1">
          <mxGeometry x="1670" y="625" width="25" height="15" as="geometry" />
        </mxCell>
        <mxCell id="n2hWyiWzyWa_PL9sFiAs-168" value="Marcas" style="ellipse;whiteSpace=wrap;html=1;" vertex="1" parent="1">
          <mxGeometry x="845" y="160" width="100" height="50" as="geometry" />
        </mxCell>
        <mxCell id="n2hWyiWzyWa_PL9sFiAs-169" style="edgeStyle=orthogonalEdgeStyle;rounded=0;orthogonalLoop=1;jettySize=auto;html=1;entryX=0.6;entryY=0.6;entryDx=0;entryDy=0;entryPerimeter=0;" edge="1" parent="1" source="n2hWyiWzyWa_PL9sFiAs-19" target="n2hWyiWzyWa_PL9sFiAs-182">
          <mxGeometry relative="1" as="geometry">
            <Array as="points">
              <mxPoint x="324" y="110" />
              <mxPoint x="-160" y="110" />
              <mxPoint x="-160" y="189" />
            </Array>
          </mxGeometry>
        </mxCell>
        <mxCell id="n2hWyiWzyWa_PL9sFiAs-170" style="edgeStyle=orthogonalEdgeStyle;rounded=0;orthogonalLoop=1;jettySize=auto;html=1;entryX=0.488;entryY=0.8;entryDx=0;entryDy=0;entryPerimeter=0;" edge="1" parent="1" source="n2hWyiWzyWa_PL9sFiAs-19" target="n2hWyiWzyWa_PL9sFiAs-178">
          <mxGeometry relative="1" as="geometry">
            <Array as="points">
              <mxPoint x="324" y="110" />
              <mxPoint x="-50" y="110" />
              <mxPoint x="-50" y="199" />
            </Array>
          </mxGeometry>
        </mxCell>
        <mxCell id="n2hWyiWzyWa_PL9sFiAs-171" style="edgeStyle=orthogonalEdgeStyle;rounded=0;orthogonalLoop=1;jettySize=auto;html=1;entryX=0.55;entryY=0.82;entryDx=0;entryDy=0;entryPerimeter=0;" edge="1" parent="1" source="n2hWyiWzyWa_PL9sFiAs-19" target="n2hWyiWzyWa_PL9sFiAs-179">
          <mxGeometry relative="1" as="geometry">
            <Array as="points">
              <mxPoint x="324" y="110" />
              <mxPoint x="60" y="110" />
            </Array>
          </mxGeometry>
        </mxCell>
        <mxCell id="n2hWyiWzyWa_PL9sFiAs-172" style="edgeStyle=orthogonalEdgeStyle;rounded=0;orthogonalLoop=1;jettySize=auto;html=1;entryX=0.5;entryY=0.62;entryDx=0;entryDy=0;entryPerimeter=0;" edge="1" parent="1" source="n2hWyiWzyWa_PL9sFiAs-19" target="n2hWyiWzyWa_PL9sFiAs-180">
          <mxGeometry relative="1" as="geometry">
            <Array as="points">
              <mxPoint x="324" y="110" />
              <mxPoint x="170" y="110" />
            </Array>
          </mxGeometry>
        </mxCell>
        <mxCell id="n2hWyiWzyWa_PL9sFiAs-173" style="edgeStyle=orthogonalEdgeStyle;rounded=0;orthogonalLoop=1;jettySize=auto;html=1;entryX=0.525;entryY=0.82;entryDx=0;entryDy=0;entryPerimeter=0;" edge="1" parent="1" source="n2hWyiWzyWa_PL9sFiAs-19" target="n2hWyiWzyWa_PL9sFiAs-181">
          <mxGeometry relative="1" as="geometry">
            <Array as="points">
              <mxPoint x="324" y="110" />
              <mxPoint x="280" y="110" />
            </Array>
          </mxGeometry>
        </mxCell>
        <mxCell id="n2hWyiWzyWa_PL9sFiAs-174" style="edgeStyle=orthogonalEdgeStyle;rounded=0;orthogonalLoop=1;jettySize=auto;html=1;entryX=0.5;entryY=0.8;entryDx=0;entryDy=0;entryPerimeter=0;" edge="1" parent="1" source="n2hWyiWzyWa_PL9sFiAs-19" target="n2hWyiWzyWa_PL9sFiAs-183">
          <mxGeometry relative="1" as="geometry">
            <Array as="points">
              <mxPoint x="324" y="110" />
              <mxPoint x="390" y="110" />
            </Array>
          </mxGeometry>
        </mxCell>
        <mxCell id="n2hWyiWzyWa_PL9sFiAs-175" style="edgeStyle=orthogonalEdgeStyle;rounded=0;orthogonalLoop=1;jettySize=auto;html=1;entryX=0.55;entryY=0.8;entryDx=0;entryDy=0;entryPerimeter=0;" edge="1" parent="1" source="n2hWyiWzyWa_PL9sFiAs-19" target="n2hWyiWzyWa_PL9sFiAs-184">
          <mxGeometry relative="1" as="geometry">
            <Array as="points">
              <mxPoint x="324" y="110" />
              <mxPoint x="500" y="110" />
            </Array>
          </mxGeometry>
        </mxCell>
        <mxCell id="n2hWyiWzyWa_PL9sFiAs-176" style="edgeStyle=orthogonalEdgeStyle;rounded=0;orthogonalLoop=1;jettySize=auto;html=1;entryX=0.45;entryY=0.82;entryDx=0;entryDy=0;entryPerimeter=0;" edge="1" parent="1" source="n2hWyiWzyWa_PL9sFiAs-19" target="n2hWyiWzyWa_PL9sFiAs-185">
          <mxGeometry relative="1" as="geometry">
            <Array as="points">
              <mxPoint x="324" y="110" />
              <mxPoint x="600" y="110" />
            </Array>
          </mxGeometry>
        </mxCell>
        <mxCell id="n2hWyiWzyWa_PL9sFiAs-177" style="edgeStyle=orthogonalEdgeStyle;rounded=0;orthogonalLoop=1;jettySize=auto;html=1;entryX=0.5;entryY=0.82;entryDx=0;entryDy=0;entryPerimeter=0;" edge="1" parent="1" source="n2hWyiWzyWa_PL9sFiAs-19" target="n2hWyiWzyWa_PL9sFiAs-186">
          <mxGeometry relative="1" as="geometry">
            <Array as="points">
              <mxPoint x="324" y="110" />
              <mxPoint x="720" y="110" />
            </Array>
          </mxGeometry>
        </mxCell>
        <mxCell id="n2hWyiWzyWa_PL9sFiAs-178" value="Modelos" style="ellipse;whiteSpace=wrap;html=1;" vertex="1" parent="1">
          <mxGeometry x="-103.75" y="159" width="100" height="50" as="geometry" />
        </mxCell>
        <mxCell id="n2hWyiWzyWa_PL9sFiAs-179" value="Tallas" style="ellipse;whiteSpace=wrap;html=1;" vertex="1" parent="1">
          <mxGeometry x="5" y="159" width="100" height="50" as="geometry" />
        </mxCell>
        <mxCell id="n2hWyiWzyWa_PL9sFiAs-180" value="Pedidos" style="ellipse;whiteSpace=wrap;html=1;" vertex="1" parent="1">
          <mxGeometry x="120" y="159" width="100" height="50" as="geometry" />
        </mxCell>
        <mxCell id="n2hWyiWzyWa_PL9sFiAs-181" value="Tipo_Noticia" style="ellipse;whiteSpace=wrap;html=1;" vertex="1" parent="1">
          <mxGeometry x="227.5" y="159" width="100" height="50" as="geometry" />
        </mxCell>
        <mxCell id="n2hWyiWzyWa_PL9sFiAs-182" value="Marcas" style="ellipse;whiteSpace=wrap;html=1;" vertex="1" parent="1">
          <mxGeometry x="-215" y="159" width="100" height="50" as="geometry" />
        </mxCell>
        <mxCell id="n2hWyiWzyWa_PL9sFiAs-183" value="Noticias" style="ellipse;whiteSpace=wrap;html=1;" vertex="1" parent="1">
          <mxGeometry x="340" y="160" width="100" height="50" as="geometry" />
        </mxCell>
        <mxCell id="n2hWyiWzyWa_PL9sFiAs-184" value="Comentarios" style="ellipse;whiteSpace=wrap;html=1;" vertex="1" parent="1">
          <mxGeometry x="445" y="160" width="100" height="50" as="geometry" />
        </mxCell>
        <mxCell id="n2hWyiWzyWa_PL9sFiAs-185" value="Clientes" style="ellipse;whiteSpace=wrap;html=1;" vertex="1" parent="1">
          <mxGeometry x="555" y="159" width="100" height="50" as="geometry" />
        </mxCell>
        <mxCell id="n2hWyiWzyWa_PL9sFiAs-186" value="Usuarios" style="ellipse;whiteSpace=wrap;html=1;" vertex="1" parent="1">
          <mxGeometry x="670" y="159" width="100" height="50" as="geometry" />
        </mxCell>
        <mxCell id="n2hWyiWzyWa_PL9sFiAs-191" style="edgeStyle=orthogonalEdgeStyle;rounded=0;orthogonalLoop=1;jettySize=auto;html=1;entryX=0.522;entryY=0.4;entryDx=0;entryDy=0;entryPerimeter=0;" edge="1" parent="1" source="n2hWyiWzyWa_PL9sFiAs-22" target="n2hWyiWzyWa_PL9sFiAs-39">
          <mxGeometry relative="1" as="geometry" />
        </mxCell>
        <mxCell id="n2hWyiWzyWa_PL9sFiAs-39" value="nombre_cliente" style="ellipse;whiteSpace=wrap;html=1;" vertex="1" parent="1">
          <mxGeometry x="-160" y="612" width="90" height="50" as="geometry" />
        </mxCell>
        <mxCell id="n2hWyiWzyWa_PL9sFiAs-192" style="edgeStyle=orthogonalEdgeStyle;rounded=0;orthogonalLoop=1;jettySize=auto;html=1;entryX=0.522;entryY=0.6;entryDx=0;entryDy=0;entryPerimeter=0;" edge="1" parent="1" source="n2hWyiWzyWa_PL9sFiAs-22" target="n2hWyiWzyWa_PL9sFiAs-44">
          <mxGeometry relative="1" as="geometry" />
        </mxCell>
        <mxCell id="n2hWyiWzyWa_PL9sFiAs-193" style="edgeStyle=orthogonalEdgeStyle;rounded=0;orthogonalLoop=1;jettySize=auto;html=1;entryX=0.633;entryY=0.84;entryDx=0;entryDy=0;entryPerimeter=0;" edge="1" parent="1" source="n2hWyiWzyWa_PL9sFiAs-22" target="n2hWyiWzyWa_PL9sFiAs-43">
          <mxGeometry relative="1" as="geometry">
            <Array as="points">
              <mxPoint x="-10" y="762" />
              <mxPoint x="-103" y="762" />
            </Array>
          </mxGeometry>
        </mxCell>
        <mxCell id="n2hWyiWzyWa_PL9sFiAs-43" value="telefono" style="ellipse;whiteSpace=wrap;html=1;" vertex="1" parent="1">
          <mxGeometry x="-160" y="730" width="90" height="50" as="geometry" />
        </mxCell>
        <mxCell id="n2hWyiWzyWa_PL9sFiAs-44" value="email_cliente" style="ellipse;whiteSpace=wrap;html=1;" vertex="1" parent="1">
          <mxGeometry x="-160" y="672" width="90" height="50" as="geometry" />
        </mxCell>
      </root>
    </mxGraphModel>
  </diagram>
</mxfile>
